<svg width="121" height="67" viewBox="0 0 121 67" fill="none" xmlns="http://www.w3.org/2000/svg">
<path d="M104.368 4.5011H88.8C81.1899 4.5011 75 9.21079 75 15.0011C75 16.9338 77.0571 18.4027 79.6 18.4027C82.1429 18.4027 84.2 16.8364 84.2 15.0011C84.2 13.0717 86.2614 11.5011 88.8 11.5011H104.368C108.465 11.5011 111.8 14.0375 111.8 17.1656C111.8 19.3225 110.223 21.2639 107.416 22.3423L93.3713 28.6063C91.8331 29.2406 91.1 30.3891 91.1 31.625V36C91.1 37.9327 93.1571 39.4989 95.7 39.4989C98.2429 39.4989 100.3 37.9327 100.3 36V33.6266L111.8 28.4859C117.474 26.3258 121 21.9869 121 17.1656C121 10.182 113.539 4.5011 104.368 4.5011ZM95.7 44.75C92.5246 44.75 89.95 46.7089 89.95 49.125C89.95 51.5411 92.5246 53.4016 95.7 53.4016C98.8754 53.4016 101.45 51.4437 101.45 49.125C101.45 46.8062 98.8769 44.75 95.7 44.75Z" fill="black"/>
<path d="M9.82143 21.375V16.0312C9.82143 7.17732 17.74 0 27.5 0C37.26 0 45.1786 7.17732 45.1786 16.0312V21.375H47.1429C51.4766 21.375 55 24.5701 55 28.5V49.875C55 53.8049 51.4766 57 47.1429 57H7.85714C3.5173 57 0 53.8049 0 49.875V28.5C0 24.5701 3.5173 21.375 7.85714 21.375H9.82143ZM17.6786 21.375H37.3214V16.0312C37.3214 11.1128 32.9263 7.125 27.5 7.125C22.0737 7.125 17.6786 11.1128 17.6786 16.0312V21.375Z" fill="black"/>
</svg>
