<svg width="46" height="56" viewBox="0 0 46 56" fill="none" xmlns="http://www.w3.org/2000/svg">
<path d="M29.3681 3.5011H13.8C6.18988 3.5011 0 8.21079 0 14.0011C0 15.9338 2.05706 17.4027 4.6 17.4027C7.14294 17.4027 9.2 15.8364 9.2 14.0011C9.2 12.0717 11.2614 10.5011 13.8 10.5011H29.3681C33.465 10.5011 36.8 13.0375 36.8 16.1656C36.8 18.3225 35.2231 20.2639 32.4156 21.3423L18.3713 27.6063C16.8331 28.2406 16.1 29.3891 16.1 30.625V35C16.1 36.9327 18.1571 38.4989 20.7 38.4989C23.2429 38.4989 25.3 36.9327 25.3 35V32.6266L36.8 27.4859C42.4738 25.3258 46 20.9869 46 16.1656C46 9.18204 38.5394 3.5011 29.3681 3.5011ZM20.7 43.75C17.5246 43.75 14.95 45.7089 14.95 48.125C14.95 50.5411 17.5246 52.4016 20.7 52.4016C23.8754 52.4016 26.45 50.4437 26.45 48.125C26.45 45.8062 23.8769 43.75 20.7 43.75Z" fill="black"/>
</svg>
