<svg width="71" height="59" viewBox="0 0 71 59" fill="none" xmlns="http://www.w3.org/2000/svg">
<g clip-path="url(#clip0_16_4)">
<path d="M24.85 29.5C32.6933 29.5 39.05 22.8959 39.05 14.75C39.05 6.60408 32.6933 0 24.85 0C17.0067 0 10.65 6.60408 10.65 14.75C10.65 22.8959 17.0067 29.5 24.85 29.5ZM30.4745 35.0312H19.2255C8.60986 35.0312 0 43.9734 0 55.0014C0 57.2139 1.72175 59 3.84509 59H45.8571C47.9805 59 49.7 57.2139 49.7 55.0014C49.7 43.9734 41.0913 35.0312 30.4745 35.0312ZM68.3375 23.0469H63.0125V17.5156C63.0125 15.9945 61.8255 14.75 60.35 14.75C58.8745 14.75 57.6875 15.9888 57.6875 17.5156V23.0469H52.3625C50.8981 23.0469 49.7 24.2914 49.7 25.8125C49.7 27.3336 50.8926 28.5781 52.3625 28.5781H57.6875V34.1094C57.6875 35.642 58.8856 36.875 60.35 36.875C61.8144 36.875 63.0125 35.6362 63.0125 34.1094V28.5781H68.3375C69.813 28.5781 71 27.3451 71 25.8125C71 24.2799 69.813 23.0469 68.3375 23.0469Z" fill="black"/>
</g>
<defs>
<clipPath id="clip0_16_4">
<rect width="71" height="59" fill="white"/>
</clipPath>
</defs>
</svg>
